<svg xmlns="http://www.w3.org/2000/svg" viewBox="0 0 296.11 297.87"><defs><style>.cls-1{fill:#fff;}</style></defs><title>アートボード 2</title><g id="White"><path id="White-2" data-name="White" class="cls-1" d="M266,12.91H28.57A14.73,14.73,0,0,0,13.84,27.64V265.07A14.73,14.73,0,0,0,28.57,279.8H156.4V176.45H121.62V136.17H156.4V106.46c0-34.47,21.05-53.24,51.81-53.24a285.37,285.37,0,0,1,31.08,1.59v36H218c-16.72,0-20,7.95-20,19.61v25.72h39.89l-5.19,40.28H198V279.8h68a14.73,14.73,0,0,0,14.73-14.73V27.64A14.73,14.73,0,0,0,266,12.91Z"/></g></svg>