<?xml version="1.0" encoding="utf-8"?>
<!-- Generator: Adobe Illustrator 21.0.1, SVG Export Plug-In . SVG Version: 6.00 Build 0)  -->
<svg version="1.1" id="背景" xmlns="http://www.w3.org/2000/svg" xmlns:xlink="http://www.w3.org/1999/xlink" x="0px" y="0px"
	 viewBox="0 0 117.2 43.5" style="enable-background:new 0 0 117.2 43.5;" xml:space="preserve">
<style type="text/css">
	.st0{enable-background:new    ;}
	.st1{fill:#231815;stroke:#231815;stroke-width:0.2835;stroke-miterlimit:10;}
	.st2{fill:#231815;}
</style>
<title>アートボード 16</title>
<g class="st0">
	<path class="st1" d="M13.9,22.4c-2.1,0-3.9-0.7-5.4-2.1c-1.5-1.4-2.2-3.2-2.2-5.3c0-2.1,0.7-3.8,2-5.3s3-2.1,5-2.1
		c1.6,0,3.2,0.3,4.9,0.8l-0.3,0.8c-1.6-0.5-3.1-0.7-4.6-0.7c-1.7,0-3.2,0.6-4.3,1.9c-1.1,1.3-1.7,2.8-1.7,4.6s0.6,3.4,1.9,4.6
		c1.3,1.3,2.8,1.9,4.6,1.9c1.6,0,2.9-0.2,4.1-0.7l0.3,0.7c-0.5,0.3-1.2,0.5-2,0.7S14.7,22.4,13.9,22.4z"/>
</g>
<g class="st0">
	<path class="st1" d="M40.8,22.1V15H31v7.2h-1V7.8h1v6.3h9.8V7.8h1v14.3H40.8z"/>
	<path class="st1" d="M55,17.2l-2.1,5h-1l6-14.4h0.6l6,14.4h-1.1l-2.1-5H55z M58.2,9.3c0,0,0,0.1-0.1,0.2c-0.2,0.6-0.4,1.1-0.5,1.5
		l-2.2,5.3h5.7l-2.2-5.3C58.4,10.1,58.2,9.5,58.2,9.3z"/>
</g>
<g class="st0">
	<path class="st1" d="M75.6,10.1l0,1.7v10.3h-1V7.7h0.4l9.4,10.9c0.6,0.8,1.1,1.4,1.5,1.8c-0.1-0.6-0.1-1.4-0.1-2.2V7.8h1v14.4h-0.4
		l-9.6-11.1c-0.7-0.8-1.1-1.3-1.3-1.5L75.6,10.1z"/>
	<path class="st1" d="M108.6,20.8c-0.9,1.1-2.3,1.6-4.2,1.6s-3.3-0.5-4.2-1.6c-0.9-1.1-1.4-2.6-1.4-4.5V7.8h1v8.4
		c0,3.5,1.5,5.3,4.6,5.3s4.6-1.8,4.6-5.3V7.8h1v8.4C110,18.2,109.5,19.7,108.6,20.8z"/>
</g>
<g class="st0">
	<path class="st2" d="M18.9,31.7c-0.3-0.1-0.7-0.2-1-0.2c-0.7,0-1,0.3-1,0.8c0,0.2,0.1,0.4,0.2,0.6c0.2,0.2,0.3,0.4,0.6,0.5
		c0.2,0.1,0.4,0.3,0.7,0.5s0.4,0.3,0.6,0.6c0.2,0.2,0.2,0.4,0.2,0.7c0,0.4-0.1,0.7-0.4,1c-0.3,0.2-0.7,0.3-1.2,0.3
		c-0.5,0-0.9-0.1-1.3-0.4l0.2-0.3c0.3,0.2,0.7,0.3,1.1,0.3s0.7-0.1,0.9-0.2c0.2-0.2,0.3-0.4,0.3-0.7c0-0.2-0.1-0.4-0.2-0.6
		c-0.2-0.2-0.3-0.4-0.6-0.5s-0.4-0.3-0.7-0.5c-0.2-0.2-0.4-0.3-0.6-0.6c-0.2-0.2-0.2-0.5-0.2-0.7c0-0.3,0.1-0.6,0.4-0.8
		c0.2-0.2,0.6-0.3,1-0.3c0.4,0,0.8,0.1,1.2,0.3L18.9,31.7z"/>
	<path class="st2" d="M23.4,36.3v-4.5h0.3v4.5H23.4z"/>
	<path class="st2" d="M28.2,36.3v-4.5h0.3V36h2.1v0.3H28.2z"/>
	<path class="st2" d="M34.8,31.7v4.5h-0.3v-4.5H34.8z M37.2,31.7l-1.9,2.2c0.8,0.9,1.3,1.5,1.6,1.8s0.6,0.4,0.8,0.4l0,0.2
		c-0.3,0-0.5,0-0.6-0.1c-0.2-0.1-0.3-0.2-0.4-0.3c-0.1-0.1-0.4-0.4-0.8-0.9s-0.7-0.8-0.9-1.1l2-2.2H37.2z"/>
	<path class="st2" d="M50.2,36.1c-0.4,0.2-0.8,0.3-1.5,0.3s-1.2-0.2-1.6-0.7c-0.5-0.4-0.7-1-0.7-1.7s0.2-1.2,0.6-1.7
		c0.4-0.4,0.9-0.7,1.6-0.7c0.5,0,1,0.1,1.5,0.2l-0.1,0.3c-0.5-0.1-1-0.2-1.5-0.2c-0.5,0-1,0.2-1.3,0.6c-0.4,0.4-0.5,0.9-0.5,1.4
		c0,0.6,0.2,1.1,0.6,1.5c0.4,0.4,0.9,0.6,1.4,0.6s1-0.1,1.3-0.2L50.2,36.1z"/>
</g>
<g class="st0">
	<path class="st2" d="M54.2,36.3v-4.5h0.3V36h2.1v0.3H54.2z"/>
</g>
<g class="st0">
	<path class="st2" d="M62.2,36.4c-0.6,0-1.2-0.2-1.6-0.7c-0.4-0.5-0.7-1-0.7-1.7s0.2-1.2,0.7-1.7c0.4-0.5,1-0.7,1.6-0.7
		c0.6,0,1.2,0.2,1.6,0.7c0.4,0.5,0.7,1,0.7,1.7s-0.2,1.2-0.7,1.7C63.4,36.1,62.8,36.4,62.2,36.4z M62.2,32c-0.6,0-1,0.2-1.4,0.6
		c-0.4,0.4-0.6,0.9-0.6,1.5s0.2,1.1,0.6,1.5s0.8,0.6,1.4,0.6s1-0.2,1.4-0.6c0.4-0.4,0.6-0.9,0.6-1.5S64,33,63.6,32.6
		C63.2,32.2,62.8,32,62.2,32z"/>
</g>
<g class="st0">
	<path class="st2" d="M69.4,32h-1.5v-0.3h3.4V32h-1.5v4.3h-0.3V32z"/>
	<path class="st2" d="M78.6,36.3V34h-3.2v2.3h-0.3v-4.5h0.3v2h3.2v-2h0.3v4.5H78.6z"/>
	<path class="st2" d="M83.4,36.3v-4.5h0.3v4.5H83.4z"/>
	<path class="st2" d="M88.3,36.3v-4.6h0.2l3,3.4c0.1,0.1,0.2,0.2,0.3,0.4s0.1,0.2,0.1,0.2c0-0.1,0-0.3,0-0.7v-3.3h0.3v4.6H92l-3-3.5
		l-0.4-0.5c0,0.1,0,0.3,0,0.7v3.3H88.3z"/>
	<path class="st2" d="M98.6,32c-0.5,0-1,0.2-1.3,0.6C97,33,96.8,33.4,96.8,34s0.2,1.1,0.6,1.5c0.4,0.4,0.9,0.6,1.4,0.6
		s1-0.1,1.3-0.2V34h0.3v2c-0.4,0.2-0.9,0.3-1.5,0.3s-1.2-0.2-1.7-0.7c-0.5-0.5-0.7-1-0.7-1.7s0.2-1.2,0.6-1.7
		c0.4-0.4,0.9-0.7,1.6-0.7c0.5,0,1,0.1,1.5,0.2l-0.1,0.3C99.7,32,99.2,32,98.6,32z"/>
</g>
</svg>
