<svg id="背景" xmlns="http://www.w3.org/2000/svg" viewBox="0 0 102.3 46.94"><defs><style>.cls-1{isolation:isolate;}.cls-2{fill:#070e29;}</style></defs><title>アートボード 1 のコピー</title><g id="A4_2" data-name="A4 2"><g class="cls-1"><g class="cls-1"><path class="cls-2" d="M15.61,12.74q-.21-.63-.5-1.32a5.41,5.41,0,0,0-.76-1.28,3.73,3.73,0,0,0-1.16-1,3.63,3.63,0,0,0-1.72-.37,4,4,0,0,0-2.19.51,3.21,3.21,0,0,0-1.21,1.43,6.83,6.83,0,0,0-.52,2.18q-.11,1.27-.11,2.77A19.39,19.39,0,0,0,7.65,19,5.66,5.66,0,0,0,8.36,21a2.61,2.61,0,0,0,1.26,1.07,5,5,0,0,0,1.84.3A3.46,3.46,0,0,0,13,22.07a4.32,4.32,0,0,0,1.23-.9,5.29,5.29,0,0,0,.89-1.29,6.44,6.44,0,0,0,.53-1.5H16v4h-.3a.67.67,0,0,0-.23-.31A.75.75,0,0,0,15,22a2.24,2.24,0,0,0-.59.1l-.83.23q-.47.12-1,.23a6.27,6.27,0,0,1-1.16.1,6.87,6.87,0,0,1-2.68-.54,7.26,7.26,0,0,1-3.85-3.7A6.81,6.81,0,0,1,5,12.74,7.54,7.54,0,0,1,9,9.06a6.69,6.69,0,0,1,2.48-.5,5.32,5.32,0,0,1,1.13.11l1,.24.81.24a2.09,2.09,0,0,0,.61.11.92.92,0,0,0,.4-.07.45.45,0,0,0,.19-.33h.3v3.88Z"/></g><g class="cls-1"><path class="cls-2" d="M28.58,8.86v.27H26.82v6.25h5.5V9.12H30.57V8.86h6.26v.27H35.09v13h1.75v.27H30.57v-.27h1.75V15.63h-5.5v6.51h1.75v.27H22.31v-.27h1.75v-13H22.31V8.86Z"/></g><g class="cls-1"><path class="cls-2" d="M42.41,22.15,48.08,8.32h.51l6,13.82h1.64v.27h-6.4v-.27h1.77L49.4,17H44.83l-2.11,5.1h1.69v.27h-3.6v-.27Zm2.51-5.37H49.3l-2.25-5.2Z"/></g><g class="cls-1"><path class="cls-2" d="M65,8.86l6.34,9.06h0V9.12H69.67V8.86h3.81v.27H71.73V22.41h-.51L62.65,10.21h0V22.15h1.75v.27H60.55v-.27H62.3v-13H60.55V8.86Z"/></g><g class="cls-1"><path class="cls-2" d="M84.32,8.86v.27H82.57v8.55a17.16,17.16,0,0,0,.09,1.74,4.61,4.61,0,0,0,.4,1.51A2.6,2.6,0,0,0,84,22a3,3,0,0,0,1.67.41,5.36,5.36,0,0,0,1.72-.24,3.49,3.49,0,0,0,1.15-.63,2.86,2.86,0,0,0,.71-.88,4.31,4.31,0,0,0,.36-1,5,5,0,0,0,.13-.91c0-.29,0-.52,0-.71V9.12H88V8.86h3.81v.27H90v8.93q0,.3,0,.77a4.68,4.68,0,0,1-.15,1,4.91,4.91,0,0,1-.4,1,2.87,2.87,0,0,1-.78.92,4.14,4.14,0,0,1-1.29.67,6.23,6.23,0,0,1-1.92.26,8.88,8.88,0,0,1-3-.41,4.26,4.26,0,0,1-1.72-1.07,3.25,3.25,0,0,1-.79-1.5A7.61,7.61,0,0,1,79.81,18V9.12H78V8.86Z"/></g></g><g class="cls-1"><path class="cls-2" d="M13.6,34.25c0,.06,0,.14.05.23a2.21,2.21,0,0,0,.11.31,2.47,2.47,0,0,0,.18.34,1.62,1.62,0,0,0,.26.32,1.51,1.51,0,0,0,.33.26,1.42,1.42,0,0,0,.3.13,1.09,1.09,0,0,0,.27,0h.24a1.48,1.48,0,0,0,.64-.12,1.14,1.14,0,0,0,.4-.3,1.1,1.1,0,0,0,.2-.37,1.21,1.21,0,0,0,.06-.34.74.74,0,0,0-.13-.45,1,1,0,0,0-.34-.3,2.52,2.52,0,0,0-.49-.2l-.56-.17a5.25,5.25,0,0,1-.56-.2,1.88,1.88,0,0,1-.49-.29,1.35,1.35,0,0,1-.34-.45A1.52,1.52,0,0,1,13.6,32a1.28,1.28,0,0,1,.13-.57A1.57,1.57,0,0,1,14.1,31a1.89,1.89,0,0,1,.56-.34,1.94,1.94,0,0,1,.71-.13,1.87,1.87,0,0,1,.43,0l.33.09.25.09a.52.52,0,0,0,.2,0,.2.2,0,0,0,.14,0,.4.4,0,0,0,.07-.12h.12V32h-.1q-.09-.26-.19-.51a1.89,1.89,0,0,0-.25-.46,1.18,1.18,0,0,0-.39-.33,1.27,1.27,0,0,0-.6-.13,1.54,1.54,0,0,0-.52.08,1.22,1.22,0,0,0-.38.21.94.94,0,0,0-.24.29.74.74,0,0,0-.08.33.66.66,0,0,0,.14.43,1.19,1.19,0,0,0,.36.29,2.72,2.72,0,0,0,.51.21l.58.18.58.21a2,2,0,0,1,.51.29,1.4,1.4,0,0,1,.36.43,1.28,1.28,0,0,1,.14.62,1.64,1.64,0,0,1-.15.69,1.72,1.72,0,0,1-.42.57,2,2,0,0,1-.64.39,2.28,2.28,0,0,1-.83.14,2.37,2.37,0,0,1-.45,0l-.42-.09-.35-.09-.23,0a.25.25,0,0,0-.15,0,.3.3,0,0,0-.08.14h-.12V34.25Z"/><path class="cls-2" d="M21.62,32.72v3.07h.5v.1H20.22v-.1h.5v-3h-.5v-.1Zm-.82-2a.52.52,0,1,1-.15.37A.5.5,0,0,1,20.8,30.76Z"/><path class="cls-2" d="M26.09,30.56v5.22h.5v.1H24.69v-.1h.5V30.67h-.5v-.1Z"/><path class="cls-2" d="M30.55,30.56v3.53h0L32,32.83h-.54v-.1h1.16v.1h-.47l-.83.78L33,35.79h.29v.1h-2v-.1h.53l-1.25-1.6h0v1.6H31v.1H29.16v-.1h.49V30.67h-.49v-.1Z"/><path class="cls-2" d="M44.38,32.14q-.08-.24-.2-.51a2.11,2.11,0,0,0-.3-.5,1.45,1.45,0,0,0-.45-.37,1.41,1.41,0,0,0-.67-.14,1.56,1.56,0,0,0-.85.2,1.25,1.25,0,0,0-.47.55,2.64,2.64,0,0,0-.2.85q0,.49,0,1.08a7.53,7.53,0,0,0,.09,1.27,2.21,2.21,0,0,0,.28.8,1,1,0,0,0,.49.41,1.93,1.93,0,0,0,.71.12,1.34,1.34,0,0,0,.6-.13,1.68,1.68,0,0,0,.48-.35,2,2,0,0,0,.35-.5,2.5,2.5,0,0,0,.21-.58h.12v1.57H44.4a.26.26,0,0,0-.09-.12.29.29,0,0,0-.16,0,.85.85,0,0,0-.23,0l-.32.09-.4.09a2.39,2.39,0,0,1-.45,0,2.67,2.67,0,0,1-1-.21,2.82,2.82,0,0,1-1.49-1.44,2.64,2.64,0,0,1,0-2.21,2.93,2.93,0,0,1,1.54-1.43,2.61,2.61,0,0,1,1-.2,2.08,2.08,0,0,1,.44,0l.38.09.31.09a.82.82,0,0,0,.24,0,.36.36,0,0,0,.16,0,.17.17,0,0,0,.07-.13h.12v1.51Z"/><path class="cls-2" d="M48.76,30.56v5.22h.5v.1H47.37v-.1h.5V30.67h-.5v-.1Z"/><path class="cls-2" d="M54.34,32.75a1.89,1.89,0,0,1,.57.37,1.66,1.66,0,0,1,.38.54,1.56,1.56,0,0,1,.14.65,1.58,1.58,0,0,1-.14.65,1.65,1.65,0,0,1-.38.54,1.82,1.82,0,0,1-.57.36,2,2,0,0,1-1.43,0,1.82,1.82,0,0,1-.57-.36A1.64,1.64,0,0,1,52,35a1.59,1.59,0,0,1-.14-.65,1.57,1.57,0,0,1,.14-.65,1.65,1.65,0,0,1,.38-.54,1.89,1.89,0,0,1,.57-.37,1.93,1.93,0,0,1,1.43,0Zm-.26,3a.81.81,0,0,0,.24-.36,2,2,0,0,0,.1-.51c0-.19,0-.39,0-.58s0-.39,0-.58a2,2,0,0,0-.1-.51.81.81,0,0,0-.24-.36.81.81,0,0,0-.9,0,.8.8,0,0,0-.24.36,1.92,1.92,0,0,0-.1.51q0,.28,0,.58t0,.58a1.92,1.92,0,0,0,.1.51.8.8,0,0,0,.24.36.81.81,0,0,0,.9,0Z"/><path class="cls-2" d="M58.79,31.84l.23,0,.22,0,.23-.07v1h.87v.1h-.87V35.3a1.36,1.36,0,0,0,0,.21.54.54,0,0,0,.06.17.3.3,0,0,0,.12.12.41.41,0,0,0,.2,0,.47.47,0,0,0,.24-.06.63.63,0,0,0,.17-.15.86.86,0,0,0,.12-.21,1.85,1.85,0,0,0,.08-.23l.11,0a1,1,0,0,1-.15.4.81.81,0,0,1-.24.23.83.83,0,0,1-.29.11l-.3,0A1.6,1.6,0,0,1,59,35.9a.75.75,0,0,1-.31-.22.57.57,0,0,1-.11-.29c0-.1,0-.2,0-.29V32.83h-.5v-.1h.5v-1Z"/><path class="cls-2" d="M63.46,35.79V30.67H63v-.1h1.39v2.87h0l.1-.2a1,1,0,0,1,.21-.26,1.27,1.27,0,0,1,.36-.23,1.36,1.36,0,0,1,.55-.1,1,1,0,0,1,.76.28,1.06,1.06,0,0,1,.27.77v2.08h.5v.1H65.26v-.1h.46V33.45A.69.69,0,0,0,65.6,33a.43.43,0,0,0-.34-.14.73.73,0,0,0-.34.08.81.81,0,0,0-.28.25,1.39,1.39,0,0,0-.2.42,2.09,2.09,0,0,0-.07.59v1.58h.47v.1H63v-.1Z"/><path class="cls-2" d="M71.16,32.72v3.07h.5v.1H69.77v-.1h.5v-3h-.5v-.1Zm-.82-2a.52.52,0,1,1-.16.37A.5.5,0,0,1,70.34,30.76Z"/><path class="cls-2" d="M74.77,35.79v-3h-.49v-.1h1.38v.74h0l.1-.2A1.09,1.09,0,0,1,76,33a1.29,1.29,0,0,1,.36-.23,1.35,1.35,0,0,1,.55-.1,1,1,0,0,1,.76.28,1.06,1.06,0,0,1,.27.77v2.08h.5v.1H76.57v-.1H77V33.45A.68.68,0,0,0,76.9,33a.43.43,0,0,0-.34-.14.72.72,0,0,0-.34.08.81.81,0,0,0-.28.25,1.41,1.41,0,0,0-.2.42,2.13,2.13,0,0,0-.07.59v1.58h.46v.1H74.28v-.1Z"/><path class="cls-2" d="M83.42,35.42a1.26,1.26,0,0,1,.45.19,1,1,0,0,1,.31.36,1.22,1.22,0,0,1,.12.57,1.41,1.41,0,0,1-.12.56,1.46,1.46,0,0,1-.35.49,1.81,1.81,0,0,1-.55.35,1.92,1.92,0,0,1-.74.13,2.19,2.19,0,0,1-.74-.1,1.21,1.21,0,0,1-.42-.25.69.69,0,0,1-.19-.29,1,1,0,0,1,0-.25.71.71,0,0,1,.09-.36.93.93,0,0,1,.23-.27,1.58,1.58,0,0,1,.32-.2,2,2,0,0,1,.34-.13h0a1.78,1.78,0,0,1-.34,0,1.2,1.2,0,0,1-.35-.13.8.8,0,0,1-.27-.24.65.65,0,0,1-.11-.38.81.81,0,0,1,0-.13.82.82,0,0,1,.08-.23,1.13,1.13,0,0,1,.2-.27,1.54,1.54,0,0,1,.37-.27l-.15-.12a1.1,1.1,0,0,1-.15-.16A.9.9,0,0,1,81.3,34a.78.78,0,0,1,0-.29,1,1,0,0,1,.1-.43,1.06,1.06,0,0,1,.28-.36,1.41,1.41,0,0,1,.46-.24,1.93,1.93,0,0,1,.6-.09,1.44,1.44,0,0,1,.57.1,1.82,1.82,0,0,1,.41.24A1.93,1.93,0,0,1,84,32.7a.78.78,0,0,1,.39-.08.44.44,0,0,1,.32.11.38.38,0,0,1,.11.28.31.31,0,0,1-.09.23.33.33,0,0,1-.24.08.38.38,0,0,1-.17,0,.26.26,0,0,1-.1-.07.22.22,0,0,1,0-.09l0-.08a1.32,1.32,0,0,0,0-.16s0-.05-.1-.05l-.1,0-.21.14a2.09,2.09,0,0,1,.19.25.86.86,0,0,1,.1.46,1,1,0,0,1-.07.37.88.88,0,0,1-.23.33,1.19,1.19,0,0,1-.41.24,1.81,1.81,0,0,1-.62.09,2.13,2.13,0,0,1-.52-.06l-.38-.12a.62.62,0,0,0-.25.24.53.53,0,0,0,0,.18.3.3,0,0,0,.15.27.78.78,0,0,0,.4.09h.81A2.57,2.57,0,0,1,83.42,35.42Zm-1.58,1.91a.76.76,0,0,0,.42.52,1,1,0,0,0,.46.09,1.11,1.11,0,0,0,.41-.07,1,1,0,0,0,.57-.52.93.93,0,0,0,.09-.41.76.76,0,0,0-.07-.36.63.63,0,0,0-.43-.33l-.24,0h-.77a1.7,1.7,0,0,0-.34.35.82.82,0,0,0-.12.47A1.21,1.21,0,0,0,81.84,37.33Zm1.06-2.71a.36.36,0,0,0,.18-.13.75.75,0,0,0,.12-.29,2.47,2.47,0,0,0,0-.49q0-.22,0-.4a1,1,0,0,0-.07-.31A.47.47,0,0,0,83,32.8a.56.56,0,0,0-.31-.07.54.54,0,0,0-.3.08.51.51,0,0,0-.18.2.91.91,0,0,0-.08.29,2.49,2.49,0,0,0,0,.33,2.69,2.69,0,0,0,0,.55.83.83,0,0,0,.12.31.34.34,0,0,0,.19.14.93.93,0,0,0,.24,0A.77.77,0,0,0,82.9,34.62Z"/></g></g></svg>